<svg xmlns="http://www.w3.org/2000/svg" width="280" height="183" viewBox="0 0 280 183">
  <g id="Vector_Smart_Object" data-name="Vector Smart Object" transform="translate(-122.828 -165.915)">
    <g id="Group_2" data-name="Group 2">
      <g id="Group_1" data-name="Group 1">
        <path id="Path_10" data-name="Path 10" d="M320.585,287.422l15.169-.023c4,0,7.278-2.4,7.628-6.112v-.21l59.446-.1-.008-4.682-17.039.03,0-3.155A4.272,4.272,0,0,1,390.152,269l12.658-.026L402.8,264.3l-14.26.022a7.486,7.486,0,0,0-7.655,7.3l0,4.716-7.241.01-.012-4.713a7.486,7.486,0,0,0-7.684-7.271l-14.72.025.01,4.68,13.118-.023a4.28,4.28,0,0,1,4.392,4.156l0,3.156-25.35.045-.033-17.7-4.931.006.036,20.405c0,2.3-1.952,3.649-4.377,3.653l-3.344,0-.039-20.821-4.932.009.041,20.819-5.249.008Z" fill="#184885" fill-rule="evenodd"/>
        <path id="Path_11" data-name="Path 11" d="M358.244,282.676l.014,4.682,4.929-.009-.007-4.681Z" fill="#184885" fill-rule="evenodd"/>
        <path id="Path_12" data-name="Path 12" d="M164.726,259l.047,22.4,4.888,0-.043-22.405Z" fill="#184885" fill-rule="evenodd"/>
        <path id="Path_13" data-name="Path 13" d="M153.788,264.829l.022,11.966-8.25.013-.022-11.923-15.109.027a7.42,7.42,0,0,0-7.6,7.235l.018,9.319,11.376-.016,5.193-4.655-11.726.02-.008-3.133a4.244,4.244,0,0,1,4.344-4.134l8.629-.011.023,11.923,18.03-.031-.029-16.609Z" fill="#184885" fill-rule="evenodd"/>
        <path id="Path_14" data-name="Path 14" d="M223.606,281.3l-.014-9.324a7.437,7.437,0,0,0-7.627-7.213l-12.4.025.006,4.642,10.806-.02a4.237,4.237,0,0,1,4.355,4.122l.015,3.131-21.231.033-.023-11.9-13.9.02a7.425,7.425,0,0,0-7.594,7.234l.014,9.324,10.164-.016,5.194-4.657-10.518.02,0-3.13a4.243,4.243,0,0,1,4.341-4.135l7.411-.017.034,18.265,4.9,0-.014-6.363Z" fill="#184885" fill-rule="evenodd"/>
        <path id="Path_15" data-name="Path 15" d="M234.619,281.284l-.042-22.405-4.888.012.037,22.4Z" fill="#184885" fill-rule="evenodd"/>
        <path id="Path_16" data-name="Path 16" d="M212.017,262l-.011-4.642-4.883.008.007,4.644Z" fill="#184885" fill-rule="evenodd"/>
        <rect id="Rectangle_1" data-name="Rectangle 1" width="4.892" height="4.647" transform="matrix(1, -0.002, 0.002, 1, 148.163, 257.462)" fill="#184885"/>
        <path id="Path_17" data-name="Path 17" d="M258.649,264.7a7.42,7.42,0,0,0-7.6,7.24l.019,9.319,12.2-.022,5.192-4.654-12.553.028-.006-3.134a4.245,4.245,0,0,1,4.343-4.136l9.448-.015.039,18.265,4.89-.013-.043-22.9Z" fill="#184885" fill-rule="evenodd"/>
        <path id="Path_18" data-name="Path 18" d="M315.755,264.553l-4.927,0,.018,12-10.679.014a4.27,4.27,0,0,1-4.389-4.153l-.018-7.834-4.888,0,.016,9.4a7.491,7.491,0,0,0,7.686,7.27l17.214-.028Z" fill="#184885" fill-rule="evenodd"/>
        <path id="Path_19" data-name="Path 19" d="M305.778,261.862l-.011-4.678-4.933,0,.011,4.684Z" fill="#184885" fill-rule="evenodd"/>
        <path id="Path_20" data-name="Path 20" d="M265.332,305.759h1.82v1.5c0,1.414-1.193,1.744-2.669,1.781H258.5v-1.15c0-1.293.989-1.889,2.286-2.093h1.393v-2.959h-1.487c-1.3-.205-2.294-.454-2.294-1.74v-1.5h8.652l-3.28-2.919h-8.417v5.394c0,1.21.5,1.487,1.3,2.3a3.356,3.356,0,0,0-1.208,2.551v5.046l9.967,0c2.642,0,4.781-1.215,4.781-3.731v-5.4h-4.861Z" fill="#184885" fill-rule="evenodd"/>
        <path id="Path_21" data-name="Path 21" d="M352.185,309.314l0,3.06,3.228-.005-.006-3.062Z" fill="#184885" fill-rule="evenodd"/>
        <path id="Path_22" data-name="Path 22" d="M300.191,306.631V312.5h3.052V307.6a2.674,2.674,0,0,1,2.74-2.6H311.4V302.09h-6.412A4.672,4.672,0,0,0,300.191,306.631Z" fill="#184885" fill-rule="evenodd"/>
        <path id="Path_23" data-name="Path 23" d="M315.274,306.631V312.5h9.931a4.677,4.677,0,0,0,4.8-4.548v-5.862h-9.935A4.668,4.668,0,0,0,315.274,306.631Zm11.649-1.622v2.311a2.7,2.7,0,0,1-2.716,2.256h-5.853v-2.313a2.688,2.688,0,0,1,2.707-2.254Z" fill="#184885" fill-rule="evenodd"/>
        <path id="Path_24" data-name="Path 24" d="M340.015,303.4h3.68l3.134-2.889v-.035h-7.815a4.675,4.675,0,0,0-4.789,4.544v2.922H345.69a2.736,2.736,0,0,1-2.541,1.636H337.3v-.018l-3.08,2.9v.038h9.931a4.669,4.669,0,0,0,4.78-4.434h.006v-3.048H337.484A2.734,2.734,0,0,1,340.015,303.4Z" fill="#184885" fill-rule="evenodd"/>
        <path id="Path_25" data-name="Path 25" d="M285.5,305.011h7.758v1.969a2.676,2.676,0,0,1-2.74,2.6h-5.8v-12.9h-3.081V312.5h9.881a4.673,4.673,0,0,0,4.788-4.551v-5.86h-7.529Z" fill="#184885" fill-rule="evenodd"/>
        <path id="Path_26" data-name="Path 26" d="M170.946,306.212v6.068h7.906l3.389-3.017H174.1v-2.041a2.766,2.766,0,0,1,2.833-2.695h6.117v7.752h3.188V301.5H175.9A4.831,4.831,0,0,0,170.946,306.212Z" fill="#184885" fill-rule="evenodd"/>
        <rect id="Rectangle_2" data-name="Rectangle 2" width="3.188" height="3.026" transform="translate(193.428 296.701)" fill="#184885"/>
        <path id="Path_27" data-name="Path 27" d="M193.428,311.881a2.627,2.627,0,0,1-2.836,2.519h-3.855v3h4.918a4.7,4.7,0,0,0,4.96-4.534V301.5h-3.188Z" fill="#184885" fill-rule="evenodd"/>
        <rect id="Rectangle_3" data-name="Rectangle 3" width="3.19" height="15.543" transform="translate(200.906 296.737)" fill="#184885"/>
        <path id="Path_28" data-name="Path 28" d="M208.73,306.212v6.068h7.909l3.39-3.017h-8.14v-2.041a2.767,2.767,0,0,1,2.832-2.695h6.121v7.752h3.185V301.5H213.69A4.836,4.836,0,0,0,208.73,306.212Z" fill="#184885" fill-rule="evenodd"/>
        <path id="Path_29" data-name="Path 29" d="M239.374,301.5H229.012V312.28H232.2v-7.752h6.144a2.767,2.767,0,0,1,2.833,2.695v5.057h3.154v-6.068A4.833,4.833,0,0,0,239.374,301.5Z" fill="#184885" fill-rule="evenodd"/>
      </g>
      <g id="Group_4" data-name="Group 4">
        <path id="Path_9" data-name="Path 9" d="M243.168,181.292h44.59v15.173H259.513V211.9h39.23V165.948h-57.3c-1.429,0-14.528-1.282-14.528,12.142v33.89h16.254Z" fill="#1c468a"/>
        <path id="Path_30" data-name="Path 30" d="M266.9,241.033h-19.65V225.511h3.833Z" fill="#edba1b"/>
        <path id="Path_31" data-name="Path 31" d="M269.649,225.511v15.522H266.9l-15.817-15.522Z" fill="#18498c"/>
        <path id="Path_32" data-name="Path 32" d="M243.165,225.511l-15.314,15.522h-.929V225.511Z" fill="#7d68a3"/>
        <path id="Path_33" data-name="Path 33" d="M247.249,225.511v15.522h-19.4l15.314-15.522Z" fill="#57aea9"/>
        <path id="Path_34" data-name="Path 34" d="M289.009,241.033h-19.36V225.511h4.066Z" fill="#57aea9"/>
        <path id="Path_35" data-name="Path 35" d="M298.747,225.511v6.2c0,1.585.135,9.2-9.738,9.317l-15.294-15.522Z" fill="#edba1b"/>
      </g>
    </g>
    <g id="Group_3" data-name="Group 3">
      <path id="Path_36" data-name="Path 36" d="M289.922,332.586l-1.493-1.544-1.526,1.512L288.4,334.1Z" fill="#edba1b"/>
      <path id="Path_37" data-name="Path 37" d="M292.487,333.341l-1.4,1.971q.551.986,1.12,2.07a9.181,9.181,0,0,1,.828,2.234,3.586,3.586,0,0,1-.665,1.2,5.965,5.965,0,0,1-1.071,1.018,5.479,5.479,0,0,1-1.283.706,3.7,3.7,0,0,1-1.331.263,3.524,3.524,0,0,1-3.49-2.3,4.508,4.508,0,0,1-.244-2.135,4.828,4.828,0,0,1,.812-2.169l-.747-.657a6.537,6.537,0,0,0-1.38,3.088,6.321,6.321,0,0,0,.243,3.171,5.048,5.048,0,0,0,1.77,2.4,4.587,4.587,0,0,0,3.165.805,5.211,5.211,0,0,0,3.376-1.183,6.223,6.223,0,0,0,2.046-3.023,4.957,4.957,0,0,0,.195-1q.032-.443.032-.838a10.017,10.017,0,0,0-.617-2.809A17.192,17.192,0,0,0,292.487,333.341Z" fill="#edba1b"/>
      <path id="Path_38" data-name="Path 38" d="M335.325,338.073a2.715,2.715,0,0,1-.958-.362,2.005,2.005,0,0,1-.99-1.183,1.785,1.785,0,0,1,.13-1.3,2.322,2.322,0,0,1,1.006-.986,2.469,2.469,0,0,1,1.64-.213,5.386,5.386,0,0,1,2.338.986l.454-1.446a5.282,5.282,0,0,0-1.575-.936,6.294,6.294,0,0,0-1.834-.411,5.678,5.678,0,0,0-1.867.181,4.247,4.247,0,0,0-1.64.838,3.14,3.14,0,0,0-.86,1.15,3.424,3.424,0,0,0-.308,1.413,2.858,2.858,0,0,0,.341,1.364,2.355,2.355,0,0,0,1.055,1H305.863a.625.625,0,0,1-.585-.378,2.929,2.929,0,0,1-.276-.887,8.225,8.225,0,0,1-.1-1.068q-.016-.559-.016-.953v-7.524l-2.111,1.347v6.177a5.128,5.128,0,0,1-.471,2.316,3.346,3.346,0,0,1-1.835,1.5,5.365,5.365,0,0,0,.471-2.612,13.106,13.106,0,0,0-.5-2.891,28.929,28.929,0,0,0-.991-2.859q-.568-1.4-.99-2.546l-1.883,1.709q.487,1.084,1.055,2.251t1.039,2.382a14.59,14.59,0,0,1,.714,2.464,7.393,7.393,0,0,1,.081,2.431,11.64,11.64,0,0,1-1.7.23,18.111,18.111,0,0,1-2.192,0l1.461,2.136a14.912,14.912,0,0,0,3.928-.542,5.207,5.207,0,0,0,2.792-1.889,2.74,2.74,0,0,0,.341.953.892.892,0,0,0,.828.493h34.446v-2.234h-2.76A7.187,7.187,0,0,1,335.325,338.073Z" fill="#edba1b"/>
      <path id="Path_39" data-name="Path 39" d="M344.708,345.728a3.921,3.921,0,0,1-1.055.115,1.134,1.134,0,0,1-.844-.378,2.48,2.48,0,0,1,1.2-1.1,1.454,1.454,0,0,1,1.363.049l.26-1.544a2.526,2.526,0,0,0-1.331-.1,2.829,2.829,0,0,0-1.169.526,2.907,2.907,0,0,0-.828.986A2.794,2.794,0,0,0,342,345.6a1.434,1.434,0,0,0,.195.772,1.042,1.042,0,0,0,.747.411,2.73,2.73,0,0,0-.552.789,3.262,3.262,0,0,0-.259.985l.1.362a2,2,0,0,1,.665-.772,6.266,6.266,0,0,1,1.023-.608,11.585,11.585,0,0,1,1.1-.46q.552-.2.942-.3l.585-1.774q-.325.164-.812.378A6.26,6.26,0,0,1,344.708,345.728Z" fill="#edba1b"/>
      <path id="Path_40" data-name="Path 40" d="M347.906,334.885a5.132,5.132,0,0,1-.471,2.316,3.348,3.348,0,0,1-1.835,1.5,5.369,5.369,0,0,0,.471-2.612,13.108,13.108,0,0,0-.5-2.891,28.831,28.831,0,0,0-.99-2.859q-.568-1.4-.99-2.546L341.7,329.5q.487,1.084,1.055,2.251t1.039,2.382a14.492,14.492,0,0,1,.714,2.464,7.375,7.375,0,0,1,.081,2.431,11.627,11.627,0,0,1-1.7.23,18.105,18.105,0,0,1-2.191,0l1.461,2.136a15.38,15.38,0,0,0,3.117-.3,6.6,6.6,0,0,0,2.484-1.035,5.042,5.042,0,0,0,1.656-1.988,7.363,7.363,0,0,0,.6-3.187v-7.524l-2.11,1.347Z" fill="#edba1b"/>
      <path id="Path_41" data-name="Path 41" d="M352.321,328.117v12.288l2.24-1.281V326.7Z" fill="#edba1b"/>
      <path id="Path_42" data-name="Path 42" d="M175.929,327.457l-4.983,12.948H173.6l1.119-2.97h5.189l1.1,2.97h2.836l-5.019-12.948Zm-.474,7.941,1.852-5.342h.036L179.2,335.4Z" fill="#edba1b"/>
      <path id="Path_43" data-name="Path 43" d="M191.5,331.967h-.045a3.327,3.327,0,0,0-1.244-1.01,3.765,3.765,0,0,0-1.575-.321,3.851,3.851,0,0,0-1.852.407,3.438,3.438,0,0,0-1.221,1.1,4.6,4.6,0,0,0-.676,1.584,8.386,8.386,0,0,0-.206,1.883,8.3,8.3,0,0,0,.21,1.879,4.753,4.753,0,0,0,.68,1.607,3.531,3.531,0,0,0,1.221,1.119,3.726,3.726,0,0,0,1.843.421,3.932,3.932,0,0,0,1.6-.312,3.706,3.706,0,0,0,1.3-.992h.036v1.078h2.38V326.5H191.5Zm-.129,4.7a3.421,3.421,0,0,1-.366,1,2.232,2.232,0,0,1-.665.743,1.722,1.722,0,0,1-1.018.289,1.562,1.562,0,0,1-.964-.294,2.29,2.29,0,0,1-.638-.742,3.545,3.545,0,0,1-.357-.982,4.966,4.966,0,0,1-.111-1.014,6.507,6.507,0,0,1,.089-1.046,3.507,3.507,0,0,1,.317-1,2.1,2.1,0,0,1,.625-.756,1.623,1.623,0,0,1,1-.3,1.754,1.754,0,0,1,1.009.285,2.293,2.293,0,0,1,.683.724,3.279,3.279,0,0,1,.384.978,4.828,4.828,0,0,1,.121,1.055A5.329,5.329,0,0,1,191.368,336.67Z" fill="#edba1b"/>
      <path id="Path_44" data-name="Path 44" d="M200.453,337.807h-.036l-2.353-6.954h-2.631l3.5,9.552H201.7l3.48-9.552h-2.451Z" fill="#edba1b"/>
      <path id="Path_45" data-name="Path 45" d="M214.737,334.221a7.53,7.53,0,0,0-.277-1.037,4.725,4.725,0,0,0-.443-.937,2.907,2.907,0,0,0-.689-.774,3.494,3.494,0,0,0-.877-.5,4.539,4.539,0,0,0-.989-.263,6.9,6.9,0,0,0-1.025-.077,4.39,4.39,0,0,0-1.932.4,3.856,3.856,0,0,0-1.365,1.082,4.65,4.65,0,0,0-.81,1.6,6.956,6.956,0,0,0-.268,1.96,6.363,6.363,0,0,0,.327,2.128,4.1,4.1,0,0,0,.953,1.553,4.007,4.007,0,0,0,1.543.951,6.36,6.36,0,0,0,2.107.322,8.672,8.672,0,0,0,1.673-.163,4.9,4.9,0,0,0,1.566-.6v-2.028a8.118,8.118,0,0,1-1.5.7,4.955,4.955,0,0,1-1.628.272,3.149,3.149,0,0,1-1.029-.163,2.464,2.464,0,0,1-.828-.471,2.369,2.369,0,0,1-.573-.756,2.794,2.794,0,0,1-.264-1.019h6.522v-.072q0-.5-.045-1.037A10.057,10.057,0,0,0,214.737,334.221Zm-6.33.471a3.156,3.156,0,0,1,.192-.892,2.149,2.149,0,0,1,.434-.711,2,2,0,0,1,.667-.471,2.187,2.187,0,0,1,.89-.172,2.055,2.055,0,0,1,.877.172,1.681,1.681,0,0,1,.608.475,2.13,2.13,0,0,1,.367.716,3.468,3.468,0,0,1,.143.883Z" fill="#edba1b"/>
      <path id="Path_46" data-name="Path 46" d="M221.711,330.636a2.188,2.188,0,0,0-.979.226,2.482,2.482,0,0,0-.8.625,4.965,4.965,0,0,0-.51.715,2.346,2.346,0,0,0-.3.824h-.036v-2.173h-2.183v9.552h2.46v-3.5q0-.353.014-.783a8.265,8.265,0,0,1,.072-.86,5.233,5.233,0,0,1,.183-.838,2.54,2.54,0,0,1,.344-.719,1.683,1.683,0,0,1,.555-.5,1.658,1.658,0,0,1,.828-.19,4.6,4.6,0,0,1,.559.036,1.644,1.644,0,0,1,.541.163v-2.5q-.188-.036-.376-.054C221.962,330.642,221.837,330.636,221.711,330.636Z" fill="#edba1b"/>
      <path id="Path_47" data-name="Path 47" d="M228.981,338.649a3.147,3.147,0,0,1-.577.054,1.1,1.1,0,0,1-.546-.126,1,1,0,0,1-.358-.34,1.485,1.485,0,0,1-.192-.48,2.6,2.6,0,0,1-.058-.557v-4.527h2.183v-1.82H227.25v-2.707l-2.46.8v1.91h-1.807v1.82h1.807v4.862a4.116,4.116,0,0,0,.192,1.308,2.593,2.593,0,0,0,.568.973,2.424,2.424,0,0,0,.935.607,3.7,3.7,0,0,0,1.293.208q.456,0,.917-.046a4.521,4.521,0,0,0,.9-.181l-.072-1.965A1.577,1.577,0,0,1,228.981,338.649Z" fill="#edba1b"/>
      <rect id="Rectangle_4" data-name="Rectangle 4" width="2.46" height="9.552" transform="translate(231.168 330.853)" fill="#edba1b"/>
      <rect id="Rectangle_5" data-name="Rectangle 5" width="2.46" height="2.372" transform="translate(231.168 326.742)" fill="#edba1b"/>
      <path id="Path_48" data-name="Path 48" d="M241.777,335.616a2.634,2.634,0,0,0-.683-.521,5.7,5.7,0,0,0-.786-.344q-.4-.14-.786-.249a5.8,5.8,0,0,1-.683-.235,1.56,1.56,0,0,1-.482-.3.607.607,0,0,1-.183-.457.912.912,0,0,1,.134-.512,1.034,1.034,0,0,1,.339-.326,1.432,1.432,0,0,1,.464-.172,2.684,2.684,0,0,1,.509-.05,6.182,6.182,0,0,1,1.115.095,6.024,6.024,0,0,1,1.08.312l.161-1.865a10.255,10.255,0,0,0-1.324-.267,10.391,10.391,0,0,0-1.351-.086,5.543,5.543,0,0,0-1.356.167,3.642,3.642,0,0,0-1.186.525,2.743,2.743,0,0,0-.836.919,2.7,2.7,0,0,0-.317,1.349,2.809,2.809,0,0,0,.148.964,2.2,2.2,0,0,0,.953,1.168,4.307,4.307,0,0,0,.671.33,6.69,6.69,0,0,0,.7.231q.353.1.671.2a4.212,4.212,0,0,1,.564.226,1.075,1.075,0,0,1,.389.312.723.723,0,0,1,.134.294,1.545,1.545,0,0,1,.036.322.932.932,0,0,1-.151.539,1.212,1.212,0,0,1-.387.362,1.75,1.75,0,0,1-.516.2,2.472,2.472,0,0,1-.547.064,4.964,4.964,0,0,1-2.433-.634l-.144,2.046a11.929,11.929,0,0,0,1.378.3,9.118,9.118,0,0,0,1.4.109,6.283,6.283,0,0,0,1.445-.168,3.887,3.887,0,0,0,1.271-.538,2.874,2.874,0,0,0,.9-.965,2.831,2.831,0,0,0,.344-1.444,3.055,3.055,0,0,0-.183-1.122A2.415,2.415,0,0,0,241.777,335.616Z" fill="#edba1b"/>
      <rect id="Rectangle_6" data-name="Rectangle 6" width="2.46" height="2.372" transform="translate(244.392 326.742)" fill="#edba1b"/>
      <rect id="Rectangle_7" data-name="Rectangle 7" width="2.46" height="9.552" transform="translate(244.392 330.853)" fill="#edba1b"/>
      <path id="Path_49" data-name="Path 49" d="M257.356,331.7a2.656,2.656,0,0,0-.993-.783,3.44,3.44,0,0,0-1.467-.285,3.937,3.937,0,0,0-1.74.371,3.778,3.778,0,0,0-1.355,1.15h-.045v-1.3H249.43v9.552h2.46v-4.672A5.651,5.651,0,0,1,252,334.66a3.573,3.573,0,0,1,.358-1.023,2.288,2.288,0,0,1,.662-.77,1.69,1.69,0,0,1,1.029-.3,1.724,1.724,0,0,1,.877.195,1.3,1.3,0,0,1,.519.729,3.239,3.239,0,0,1,.184.9q.022.439.022.919v5.1H258.1v-6.03a5.9,5.9,0,0,0-.179-1.485A3.261,3.261,0,0,0,257.356,331.7Z" fill="#edba1b"/>
      <path id="Path_50" data-name="Path 50" d="M266.948,332.157h-.036A3.341,3.341,0,0,0,265.664,331a3.59,3.59,0,0,0-1.651-.367,3.869,3.869,0,0,0-1.731.394,3.218,3.218,0,0,0-1.311,1.2,5.97,5.97,0,0,0-.72,1.607,6.571,6.571,0,0,0-.228,1.752,7.671,7.671,0,0,0,.21,1.811,4.6,4.6,0,0,0,.667,1.535,3.412,3.412,0,0,0,1.19,1.068,3.651,3.651,0,0,0,1.781.4,4.122,4.122,0,0,0,.846-.091,3.579,3.579,0,0,0,.828-.281,3.23,3.23,0,0,0,.72-.475,2.343,2.343,0,0,0,.532-.675h.045q0,.316-.009.629t-.036.629a3.175,3.175,0,0,1-.273,1.1,2.231,2.231,0,0,1-.581.765,2.349,2.349,0,0,1-.854.449A3.863,3.863,0,0,1,264,342.6a3.06,3.06,0,0,1-.648-.082q-.371-.081-.751-.2t-.737-.271q-.357-.15-.608-.276l-.206,2.109a12.221,12.221,0,0,0,1.578.471,7.309,7.309,0,0,0,1.623.181,5.165,5.165,0,0,0,3.765-1.254,5.089,5.089,0,0,0,1.279-3.789v-8.629h-2.344Zm-.215,4.428a3.018,3.018,0,0,1-.357.946,2.018,2.018,0,0,1-.665.683,1.892,1.892,0,0,1-1.031.263,1.54,1.54,0,0,1-.933-.29,2.34,2.34,0,0,1-.652-.729,3.558,3.558,0,0,1-.38-.955,4.16,4.16,0,0,1-.125-.978,5.089,5.089,0,0,1,.112-1.055,3.022,3.022,0,0,1,.37-.955,2.073,2.073,0,0,1,.678-.688,1.921,1.921,0,0,1,1.036-.262,1.737,1.737,0,0,1,1,.272,1.97,1.97,0,0,1,.629.7,3.163,3.163,0,0,1,.326.955,5.879,5.879,0,0,1,.094,1.032A5.284,5.284,0,0,1,266.733,336.584Z" fill="#edba1b"/>
    </g>
  </g>
</svg>
