<svg xmlns="http://www.w3.org/2000/svg" width="71.833" height="75.118" viewBox="0 0 71.833 75.118">
  <g id="Group_4" data-name="Group 4" transform="translate(-226.914 -165.915)">
    <path id="Path_9" data-name="Path 9" d="M243.168,181.292h44.59v15.173H259.513V211.9h39.23V165.948h-57.3c-1.429,0-14.528-1.282-14.528,12.142v33.89h16.254Z" fill="#1c468a"/>
    <path id="Path_30" data-name="Path 30" d="M266.9,241.033h-19.65V225.511h3.833Z" fill="#edba1b"/>
    <path id="Path_31" data-name="Path 31" d="M269.649,225.511v15.522H266.9l-15.817-15.522Z" fill="#18498c"/>
    <path id="Path_32" data-name="Path 32" d="M243.165,225.511l-15.314,15.522h-.929V225.511Z" fill="#7d68a3"/>
    <path id="Path_33" data-name="Path 33" d="M247.249,225.511v15.522h-19.4l15.314-15.522Z" fill="#57aea9"/>
    <path id="Path_34" data-name="Path 34" d="M289.009,241.033h-19.36V225.511h4.066Z" fill="#57aea9"/>
    <path id="Path_35" data-name="Path 35" d="M298.747,225.511v6.2c0,1.585.135,9.2-9.738,9.317l-15.294-15.522Z" fill="#edba1b"/>
  </g>
</svg>
