<svg width="89" height="89" viewBox="0 0 89 89" fill="none" xmlns="http://www.w3.org/2000/svg">
<circle cx="44.5" cy="44.5" r="44.5" fill="#13468B"/>
<path d="M40.8197 33.0004C40.465 32.9926 40.1166 33.0954 39.8231 33.2948C39.5296 33.4941 39.3054 33.78 39.1819 34.1126C39.0583 34.4452 39.0414 34.808 39.1336 35.1506C39.2258 35.4932 39.4224 35.7985 39.6961 36.0242L50.1413 44.9724L39.6961 53.9175C39.5068 54.0567 39.3482 54.2334 39.2303 54.4367C39.1124 54.64 39.0378 54.8655 39.0111 55.099C38.9844 55.3325 39.0061 55.5689 39.0751 55.7936C39.144 56.0183 39.2585 56.2264 39.4116 56.4047C39.5646 56.5831 39.7528 56.7278 39.9644 56.83C40.176 56.9322 40.4065 56.9897 40.6413 56.9987C40.8762 57.0078 41.1103 56.9684 41.3292 56.8828C41.548 56.7971 41.7469 56.6672 41.9132 56.5012L53.872 46.2693C54.0598 46.109 54.2106 45.9101 54.314 45.6859C54.4174 45.4617 54.4709 45.2177 54.4709 44.9708C54.4709 44.7239 54.4174 44.4799 54.314 44.2557C54.2106 44.0316 54.0598 43.8324 53.872 43.6722L41.9132 33.4304C41.6111 33.1621 41.2236 33.0099 40.8197 33.0004Z" fill="white"/>
</svg>
