<svg xmlns="http://www.w3.org/2000/svg" width="52.56" height="52.56" viewBox="0 0 52.56 52.56">
  <g id="Twitter" transform="translate(-1766.65 -6337.32)">
    <circle id="Circle" cx="26.28" cy="26.28" r="26.28" transform="translate(1766.65 6337.32)" fill="#fff"/>
    <path id="Logo" d="M1793.249,6358.566l.061,1-1.014-.122a16.541,16.541,0,0,1-9.655-4.717l-1.339-1.321-.345.976a5.836,5.836,0,0,0,1.257,6.018c.811.854.629.976-.771.467a2.392,2.392,0,0,0-.953-.223,7.245,7.245,0,0,0,.73,2.724,6.529,6.529,0,0,0,2.779,2.6l.994.468-1.177.02c-1.136,0-1.176.021-1.055.448a6.116,6.116,0,0,0,3.793,3.334l1.258.427-1.1.651a11.475,11.475,0,0,1-5.436,1.5,6.043,6.043,0,0,0-1.663.163,15.488,15.488,0,0,0,3.915,1.789,17.245,17.245,0,0,0,13.306-1.5,17.719,17.719,0,0,0,6.754-7.888,20.846,20.846,0,0,0,1.379-6.1c0-.936.061-1.057,1.2-2.175a13.362,13.362,0,0,0,1.42-1.565c.2-.386.183-.386-.852-.041-1.724.61-1.967.528-1.116-.387a5.907,5.907,0,0,0,1.379-2.175c0-.062-.3.04-.649.224a11.349,11.349,0,0,1-1.785.691l-1.1.346-.994-.671a8.3,8.3,0,0,0-1.724-.895,6.973,6.973,0,0,0-3.55.082A5.82,5.82,0,0,0,1793.249,6358.566Z" fill="#242424"/>
  </g>
</svg>
